# xmcd
#
# Track frame offsets:
#	150
#	26895
#	44742
#	61145
#	81605
#	103510
#	122295
#	137020
#	147770
#	167477
#	181932
#	200762
#
# Disc length: 3011 seconds
#
# Revision: 8
# Processed by: cddbd v1.5.2PL0 Copyright (c) Steve Scherf et al.
# Submitted via: audiograbber 1.83.01
#
DISCID=a90bc10c
DTITLE=Jones, Rickie Lee - Pop pop
DYEAR=1991
DGENRE=Rock
TTITLE0=My one and only love
TTITLE1=Spring can really hang you up the most
TTITLE2=Hi-lili hi-lo
TTITLE3=Up from the skies
TTITLE4=Second time around
TTITLE5=Dat dere
TTITLE6=I'll be seeing you
TTITLE7=Bye bye blackbird
TTITLE8=The ballad of the sad young men
TTITLE9=I won't grow up
TTITLE10=Love junkyard
TTITLE11=Comin' back to me
EXTD=
EXTT0=
EXTT1=
EXTT2=
EXTT3=
EXTT4=
EXTT5=
EXTT6=
EXTT7=
EXTT8=
EXTT9=
EXTT10=
EXTT11=
PLAYORDER=
